<?xml version="1.0" encoding="UTF-8" standalone="no"?>
<!-- Created with Inkscape (http://www.inkscape.org/) -->

<svg
   width="210mm"
   height="297mm"
   viewBox="0 0 210 297"
   version="1.1"
   id="svg5"
   inkscape:version="1.1 (c4e8f9ed74, 2021-05-24)"
   sodipodi:docname="scalapy-gym.svg"
   xmlns:inkscape="http://www.inkscape.org/namespaces/inkscape"
   xmlns:sodipodi="http://sodipodi.sourceforge.net/DTD/sodipodi-0.dtd"
   xmlns="http://www.w3.org/2000/svg"
   xmlns:svg="http://www.w3.org/2000/svg">
  <sodipodi:namedview
     id="namedview7"
     pagecolor="#ffffff"
     bordercolor="#666666"
     borderopacity="1.0"
     inkscape:pageshadow="2"
     inkscape:pageopacity="0.0"
     inkscape:pagecheckerboard="0"
     inkscape:document-units="mm"
     showgrid="false"
     inkscape:zoom="1.1759259"
     inkscape:cx="375.87402"
     inkscape:cy="528.09449"
     inkscape:window-width="3840"
     inkscape:window-height="2107"
     inkscape:window-x="3840"
     inkscape:window-y="0"
     inkscape:window-maximized="1"
     inkscape:current-layer="layer1" />
  <defs
     id="defs2" />
  <g
     inkscape:label="Layer 1"
     inkscape:groupmode="layer"
     id="layer1">
    <g
       style="fill:none"
       id="g868"
       transform="matrix(0.69456144,0,0,0.6681774,0.46036986,12.29327)">
      <g
         opacity="0.6"
         id="g848">
        <path
           d="m 0,140.539 c 0,0 209.667,20.98 209.667,55.948 v -83.923 c 0,0 0,-34.9677 -209.667,-55.9484 v 32.6367 z"
           fill="#ffffff"
           id="path844" />
        <path
           d="m 0,252.436 c 0,0 209.667,20.981 209.667,55.948 v -83.923 c 0,0 0,-34.967 -209.667,-55.948 z"
           fill="#ffffff"
           id="path846" />
      </g>
      <path
         d="m 210,1 v 83.9229 c 0,0 0,34.9681 -209.666662,55.9491 V 56.6156 C 4.79817e-6,56.6156 210,35.9679 210,1 Z"
         fill="#66aaee"
         id="path850" />
      <path
         d="m 0,168.513 c 0,0 209.667,-20.981 209.667,-55.949 v 83.923 c 0,0 0,34.968 -209.667,55.949 z"
         fill="#ffdd55"
         id="path852" />
      <path
         d="m 0,364 v -83.923 c 0,0 209.667,-20.981 209.667,-55.949 v 83.923 C 210,308.384 210,343.019 0,364 Z"
         fill="#66aaee"
         id="path854" />
    </g>
  </g>
  <g
     inkscape:groupmode="layer"
     id="layer2"
     inkscape:label="Layer 2">
    <g
       id="g842"
       transform="matrix(1.7423255,0,0,1.6783902,104.32343,156.66334)">
      <path
         fill="#f82f45"
         d="m 55.11,14.04 c 1.09,1.89 1.61,3.95 1.61,5.99 0,2.34 -0.69,4.65 -1.99,6.62 0,-0.01 -0.01,-0.01 -0.01,-0.01 L 40,18.14 32.01,22.74 23.99,27.36 24,18.14 38.72,9.64 c 0.01,0 0.01,-0.01 0.02,-0.01 5.74,-3.3 13.06,-1.32 16.37,4.41 z M 31.99,41.26 24,45.86 9.28,37.36 c 0,0 -0.01,0 -0.01,-0.01 C 3.54,34.03 1.57,26.7 4.89,20.96 c 2.22,-3.85 6.25,-6 10.4,-6 0.24,0 0.47,0.01 0.71,0.02 0,0.01 0,0.01 0,0.02 v 17 l 7.97,4.62 z"
         id="path824" />
      <path
         fill="#d22435"
         d="m 38.74,9.63 c -0.01,0 -0.01,0.01 -0.02,0.01 L 24,18.14 23.99,27.36 23.97,36.62 16,32 V 15 c 0,-0.01 0,-0.01 0,-0.02 C 16.01,8.36 21.38,3 28,3 c 3.32,0 6.32,1.34 8.49,3.51 0.91,0.91 1.67,1.96 2.25,3.12 z"
         id="path826" />
      <path
         fill="#f82f45"
         d="m 48,49 c 0,0.01 0,0.01 0,0.02 C 47.99,55.64 42.62,61 36,61 c -3.32,0 -6.32,-1.34 -8.49,-3.51 -0.91,-0.91 -1.67,-1.96 -2.25,-3.12 0.01,0 0.01,-0.01 0.02,-0.01 L 40,45.86 40.01,36.64 40.03,27.38 48,32 Z"
         id="path828" />
      <path
         fill="#d22435"
         d="m 9.28,37.36 14.72,8.5 7.99,-4.6 8.02,-4.62 -0.01,9.22 -14.72,8.5 c -0.01,0 -0.01,0.01 -0.02,0.01 C 19.52,57.67 12.2,55.69 8.89,49.96 7.8,48.07 7.28,46.01 7.28,43.97 c 0,-2.34 0.69,-4.65 1.99,-6.62 0,0.01 0.01,0.01 0.01,0.01 z M 54.73,26.65 c 5.73,3.32 7.7,10.65 4.38,16.39 -2.22,3.85 -6.25,6 -10.4,6 -0.24,0 -0.47,-0.01 -0.71,-0.02 0,-0.01 0,-0.01 0,-0.02 V 32 l -7.97,-4.62 -8.02,-4.64 7.99,-4.6 14.72,8.5 c 0,0 0.01,0 0.01,0.01 z"
         id="path830" />
    </g>
  </g>
</svg>
